<svg xmlns="http://www.w3.org/2000/svg" version="1.1" xmlns:xlink="http://www.w3.org/1999/xlink" xmlns:svgjs="http://svgjs.dev/svgjs" width="1440" height="560" preserveAspectRatio="none" viewBox="0 0 1440 560"><g mask="url(&quot;#SvgjsMask1000&quot;)" fill="none"><rect width="1440" height="560" x="0" y="0" fill="#0e2a47"></rect><path d="M-88.38 364.49L-88.38 364.49" stroke="#132e65" stroke-width="1.5"></path><path d="M-88.38 364.49L67.81 387.75" stroke="#132e65" stroke-width="1.5"></path><path d="M-50.02 710.2L-50.02 710.2" stroke="#132e65" stroke-width="1.5"></path><path d="M-50.02 710.2L90.11 686.18" stroke="#132e65" stroke-width="1.5"></path><path d="M-50.02 710.2L81.33 492.55" stroke="#132e65" stroke-width="1.5"></path><path d="M-50.02 710.2L224.19 691.83" stroke="#132e65" stroke-width="1.5"></path><path d="M-50.02 710.2L222.08 510.76" stroke="#132e65" stroke-width="1.5"></path><path d="M67.81 387.75L67.81 387.75" stroke="#132e65" stroke-width="1.5"></path><path d="M67.81 387.75L81.33 492.55" stroke="#132e65" stroke-width="1.5"></path><path d="M81.33 492.55L81.33 492.55" stroke="#132e65" stroke-width="1.5"></path><path d="M90.11 686.18L90.11 686.18" stroke="#132e65" stroke-width="1.5"></path><path d="M90.11 686.18L224.19 691.83" stroke="#132e65" stroke-width="1.5"></path><path d="M90.11 686.18L81.33 492.55" stroke="#132e65" stroke-width="1.5"></path><path d="M220.05 384.85L220.05 384.85" stroke="#132e65" stroke-width="1.5"></path><path d="M220.05 384.85L222.08 510.76" stroke="#132e65" stroke-width="1.5"></path><path d="M220.05 384.85L67.81 387.75" stroke="#132e65" stroke-width="1.5"></path><path d="M220.05 384.85L383.82 337.53" stroke="#132e65" stroke-width="1.5"></path><path d="M220.05 384.85L81.33 492.55" stroke="#132e65" stroke-width="1.5"></path><path d="M222.08 510.76L222.08 510.76" stroke="#132e65" stroke-width="1.5"></path><path d="M222.08 510.76L81.33 492.55" stroke="#132e65" stroke-width="1.5"></path><path d="M222.08 510.76L397.94 538.18" stroke="#132e65" stroke-width="1.5"></path><path d="M222.08 510.76L224.19 691.83" stroke="#132e65" stroke-width="1.5"></path><path d="M222.08 510.76L67.81 387.75" stroke="#132e65" stroke-width="1.5"></path><path d="M224.19 691.83L224.19 691.83" stroke="#132e65" stroke-width="1.5"></path><path d="M383.82 337.53L383.82 337.53" stroke="#132e65" stroke-width="1.5"></path><path d="M383.82 337.53L553.38 371.87" stroke="#132e65" stroke-width="1.5"></path><path d="M383.82 337.53L397.94 538.18" stroke="#132e65" stroke-width="1.5"></path><path d="M397.94 538.18L397.94 538.18" stroke="#132e65" stroke-width="1.5"></path><path d="M397.94 538.18L539.8 489.43" stroke="#132e65" stroke-width="1.5"></path><path d="M397.94 538.18L506.86 663.08" stroke="#132e65" stroke-width="1.5"></path><path d="M397.94 538.18L553.38 371.87" stroke="#132e65" stroke-width="1.5"></path><path d="M397.94 538.18L224.19 691.83" stroke="#132e65" stroke-width="1.5"></path><path d="M553.38 371.87L553.38 371.87" stroke="#132e65" stroke-width="1.5"></path><path d="M553.38 371.87L655.66 370.93" stroke="#132e65" stroke-width="1.5"></path><path d="M553.38 371.87L539.8 489.43" stroke="#132e65" stroke-width="1.5"></path><path d="M553.38 371.87L684.99 221.65" stroke="#132e65" stroke-width="1.5"></path><path d="M553.38 371.87L699.95 533.58" stroke="#132e65" stroke-width="1.5"></path><path d="M539.8 489.43L539.8 489.43" stroke="#132e65" stroke-width="1.5"></path><path d="M539.8 489.43L655.66 370.93" stroke="#132e65" stroke-width="1.5"></path><path d="M539.8 489.43L699.95 533.58" stroke="#132e65" stroke-width="1.5"></path><path d="M539.8 489.43L506.86 663.08" stroke="#132e65" stroke-width="1.5"></path><path d="M506.86 663.08L506.86 663.08" stroke="#132e65" stroke-width="1.5"></path><path d="M506.86 663.08L690.03 653.18" stroke="#132e65" stroke-width="1.5"></path><path d="M506.86 663.08L699.95 533.58" stroke="#132e65" stroke-width="1.5"></path><path d="M684.99 221.65L684.99 221.65" stroke="#132e65" stroke-width="1.5"></path><path d="M684.99 221.65L804.22 251.75" stroke="#132e65" stroke-width="1.5"></path><path d="M684.99 221.65L655.66 370.93" stroke="#132e65" stroke-width="1.5"></path><path d="M684.99 221.65L850.41 409.56" stroke="#132e65" stroke-width="1.5"></path><path d="M684.99 221.65L952.14 199.68" stroke="#132e65" stroke-width="1.5"></path><path d="M655.66 370.93L655.66 370.93" stroke="#132e65" stroke-width="1.5"></path><path d="M655.66 370.93L699.95 533.58" stroke="#132e65" stroke-width="1.5"></path><path d="M699.95 533.58L699.95 533.58" stroke="#132e65" stroke-width="1.5"></path><path d="M699.95 533.58L795.13 503.89" stroke="#132e65" stroke-width="1.5"></path><path d="M699.95 533.58L690.03 653.18" stroke="#132e65" stroke-width="1.5"></path><path d="M690.03 653.18L690.03 653.18" stroke="#132e65" stroke-width="1.5"></path><path d="M690.03 653.18L811.91 685.74" stroke="#132e65" stroke-width="1.5"></path><path d="M804.22 251.75L804.22 251.75" stroke="#132e65" stroke-width="1.5"></path><path d="M804.22 251.75L952.14 199.68" stroke="#132e65" stroke-width="1.5"></path><path d="M804.22 251.75L850.41 409.56" stroke="#132e65" stroke-width="1.5"></path><path d="M804.22 251.75L655.66 370.93" stroke="#132e65" stroke-width="1.5"></path><path d="M850.41 409.56L850.41 409.56" stroke="#132e65" stroke-width="1.5"></path><path d="M850.41 409.56L795.13 503.89" stroke="#132e65" stroke-width="1.5"></path><path d="M850.41 409.56L983.11 369.91" stroke="#132e65" stroke-width="1.5"></path><path d="M850.41 409.56L956.05 545.06" stroke="#132e65" stroke-width="1.5"></path><path d="M795.13 503.89L795.13 503.89" stroke="#132e65" stroke-width="1.5"></path><path d="M811.91 685.74L811.91 685.74" stroke="#132e65" stroke-width="1.5"></path><path d="M811.91 685.74L795.13 503.89" stroke="#132e65" stroke-width="1.5"></path><path d="M811.91 685.74L699.95 533.58" stroke="#132e65" stroke-width="1.5"></path><path d="M966.66 -94.87L966.66 -94.87" stroke="#132e65" stroke-width="1.5"></path><path d="M966.66 -94.87L953.86 59.08" stroke="#132e65" stroke-width="1.5"></path><path d="M966.66 -94.87L1123.45 -44.55" stroke="#132e65" stroke-width="1.5"></path><path d="M966.66 -94.87L1145.69 71.56" stroke="#132e65" stroke-width="1.5"></path><path d="M953.86 59.08L953.86 59.08" stroke="#132e65" stroke-width="1.5"></path><path d="M953.86 59.08L952.14 199.68" stroke="#132e65" stroke-width="1.5"></path><path d="M952.14 199.68L952.14 199.68" stroke="#132e65" stroke-width="1.5"></path><path d="M952.14 199.68L1087.84 197.4" stroke="#132e65" stroke-width="1.5"></path><path d="M952.14 199.68L983.11 369.91" stroke="#132e65" stroke-width="1.5"></path><path d="M983.11 369.91L983.11 369.91" stroke="#132e65" stroke-width="1.5"></path><path d="M983.11 369.91L956.05 545.06" stroke="#132e65" stroke-width="1.5"></path><path d="M983.11 369.91L1161.51 361.73" stroke="#132e65" stroke-width="1.5"></path><path d="M983.11 369.91L1110.5 504.05" stroke="#132e65" stroke-width="1.5"></path><path d="M956.05 545.06L956.05 545.06" stroke="#132e65" stroke-width="1.5"></path><path d="M956.05 545.06L1012.41 676.21" stroke="#132e65" stroke-width="1.5"></path><path d="M956.05 545.06L1110.5 504.05" stroke="#132e65" stroke-width="1.5"></path><path d="M956.05 545.06L795.13 503.89" stroke="#132e65" stroke-width="1.5"></path><path d="M1012.41 676.21L1012.41 676.21" stroke="#132e65" stroke-width="1.5"></path><path d="M1012.41 676.21L1110.5 504.05" stroke="#132e65" stroke-width="1.5"></path><path d="M1012.41 676.21L811.91 685.74" stroke="#132e65" stroke-width="1.5"></path><path d="M1012.41 676.21L795.13 503.89" stroke="#132e65" stroke-width="1.5"></path><path d="M1123.45 -44.55L1123.45 -44.55" stroke="#132e65" stroke-width="1.5"></path><path d="M1123.45 -44.55L1145.69 71.56" stroke="#132e65" stroke-width="1.5"></path><path d="M1123.45 -44.55L1269.58 -45.7" stroke="#132e65" stroke-width="1.5"></path><path d="M1123.45 -44.55L1283.32 71.89" stroke="#132e65" stroke-width="1.5"></path><path d="M1145.69 71.56L1145.69 71.56" stroke="#132e65" stroke-width="1.5"></path><path d="M1145.69 71.56L1283.32 71.89" stroke="#132e65" stroke-width="1.5"></path><path d="M1145.69 71.56L1087.84 197.4" stroke="#132e65" stroke-width="1.5"></path><path d="M1145.69 71.56L1269.58 -45.7" stroke="#132e65" stroke-width="1.5"></path><path d="M1145.69 71.56L953.86 59.08" stroke="#132e65" stroke-width="1.5"></path><path d="M1145.69 71.56L952.14 199.68" stroke="#132e65" stroke-width="1.5"></path><path d="M1087.84 197.4L1087.84 197.4" stroke="#132e65" stroke-width="1.5"></path><path d="M1087.84 197.4L1161.51 361.73" stroke="#132e65" stroke-width="1.5"></path><path d="M1087.84 197.4L953.86 59.08" stroke="#132e65" stroke-width="1.5"></path><path d="M1087.84 197.4L983.11 369.91" stroke="#132e65" stroke-width="1.5"></path><path d="M1087.84 197.4L1281.67 262.46" stroke="#132e65" stroke-width="1.5"></path><path d="M1161.51 361.73L1161.51 361.73" stroke="#132e65" stroke-width="1.5"></path><path d="M1161.51 361.73L1271.75 358.4" stroke="#132e65" stroke-width="1.5"></path><path d="M1161.51 361.73L1110.5 504.05" stroke="#132e65" stroke-width="1.5"></path><path d="M1161.51 361.73L1281.67 262.46" stroke="#132e65" stroke-width="1.5"></path><path d="M1110.5 504.05L1110.5 504.05" stroke="#132e65" stroke-width="1.5"></path><path d="M1110.5 504.05L1293.28 498.21" stroke="#132e65" stroke-width="1.5"></path><path d="M1269.58 -45.7L1269.58 -45.7" stroke="#132e65" stroke-width="1.5"></path><path d="M1269.58 -45.7L1283.32 71.89" stroke="#132e65" stroke-width="1.5"></path><path d="M1283.32 71.89L1283.32 71.89" stroke="#132e65" stroke-width="1.5"></path><path d="M1281.67 262.46L1281.67 262.46" stroke="#132e65" stroke-width="1.5"></path><path d="M1281.67 262.46L1271.75 358.4" stroke="#132e65" stroke-width="1.5"></path><path d="M1281.67 262.46L1446.92 208.71" stroke="#132e65" stroke-width="1.5"></path><path d="M1281.67 262.46L1434.95 373.66" stroke="#132e65" stroke-width="1.5"></path><path d="M1281.67 262.46L1283.32 71.89" stroke="#132e65" stroke-width="1.5"></path><path d="M1271.75 358.4L1271.75 358.4" stroke="#132e65" stroke-width="1.5"></path><path d="M1271.75 358.4L1293.28 498.21" stroke="#132e65" stroke-width="1.5"></path><path d="M1271.75 358.4L1434.95 373.66" stroke="#132e65" stroke-width="1.5"></path><path d="M1271.75 358.4L1110.5 504.05" stroke="#132e65" stroke-width="1.5"></path><path d="M1293.28 498.21L1293.28 498.21" stroke="#132e65" stroke-width="1.5"></path><path d="M1293.28 498.21L1388.6 559.52" stroke="#132e65" stroke-width="1.5"></path><path d="M1311.7 705.12L1311.7 705.12" stroke="#132e65" stroke-width="1.5"></path><path d="M1311.7 705.12L1433.83 686.35" stroke="#132e65" stroke-width="1.5"></path><path d="M1417.31 -44.44L1417.31 -44.44" stroke="#132e65" stroke-width="1.5"></path><path d="M1417.31 -44.44L1421.75 45.93" stroke="#132e65" stroke-width="1.5"></path><path d="M1417.31 -44.44L1269.58 -45.7" stroke="#132e65" stroke-width="1.5"></path><path d="M1417.31 -44.44L1283.32 71.89" stroke="#132e65" stroke-width="1.5"></path><path d="M1417.31 -44.44L1603.62 92.51" stroke="#132e65" stroke-width="1.5"></path><path d="M1417.31 -44.44L1446.92 208.71" stroke="#132e65" stroke-width="1.5"></path><path d="M1417.31 -44.44L1123.45 -44.55" stroke="#132e65" stroke-width="1.5"></path><path d="M1421.75 45.93L1421.75 45.93" stroke="#132e65" stroke-width="1.5"></path><path d="M1421.75 45.93L1283.32 71.89" stroke="#132e65" stroke-width="1.5"></path><path d="M1421.75 45.93L1446.92 208.71" stroke="#132e65" stroke-width="1.5"></path><path d="M1421.75 45.93L1269.58 -45.7" stroke="#132e65" stroke-width="1.5"></path><path d="M1421.75 45.93L1603.62 92.51" stroke="#132e65" stroke-width="1.5"></path><path d="M1446.92 208.71L1446.92 208.71" stroke="#132e65" stroke-width="1.5"></path><path d="M1446.92 208.71L1556.08 230.65" stroke="#132e65" stroke-width="1.5"></path><path d="M1446.92 208.71L1434.95 373.66" stroke="#132e65" stroke-width="1.5"></path><path d="M1434.95 373.66L1434.95 373.66" stroke="#132e65" stroke-width="1.5"></path><path d="M1388.6 559.52L1388.6 559.52" stroke="#132e65" stroke-width="1.5"></path><path d="M1388.6 559.52L1433.83 686.35" stroke="#132e65" stroke-width="1.5"></path><path d="M1433.83 686.35L1433.83 686.35" stroke="#132e65" stroke-width="1.5"></path><path d="M1603.62 92.51L1603.62 92.51" stroke="#132e65" stroke-width="1.5"></path><path d="M1603.62 92.51L1556.08 230.65" stroke="#132e65" stroke-width="1.5"></path><path d="M1603.62 92.51L1446.92 208.71" stroke="#132e65" stroke-width="1.5"></path><path d="M1603.62 92.51L1612.03 361.5" stroke="#132e65" stroke-width="1.5"></path><path d="M1556.08 230.65L1556.08 230.65" stroke="#132e65" stroke-width="1.5"></path><path d="M1556.08 230.65L1612.03 361.5" stroke="#132e65" stroke-width="1.5"></path><path d="M1612.03 361.5L1612.03 361.5" stroke="#132e65" stroke-width="1.5"></path><path d="M1612.03 361.5L1612.19 504.03" stroke="#132e65" stroke-width="1.5"></path><path d="M1612.19 504.03L1612.19 504.03" stroke="#132e65" stroke-width="1.5"></path><path d="M1612.19 504.03L1565.97 661.2" stroke="#132e65" stroke-width="1.5"></path><path d="M1612.19 504.03L1434.95 373.66" stroke="#132e65" stroke-width="1.5"></path><path d="M1612.19 504.03L1388.6 559.52" stroke="#132e65" stroke-width="1.5"></path><path d="M1612.19 504.03L1433.83 686.35" stroke="#132e65" stroke-width="1.5"></path><path d="M1565.97 661.2L1565.97 661.2" stroke="#132e65" stroke-width="1.5"></path><path d="M1565.97 661.2L1433.83 686.35" stroke="#132e65" stroke-width="1.5"></path><circle r="5" cx="-88.38" cy="364.49" fill="#132e65"></circle><circle r="5" cx="-50.02" cy="710.2" fill="#132e65"></circle><circle r="5" cx="67.81" cy="387.75" fill="#132e65"></circle><circle r="5" cx="81.33" cy="492.55" fill="#132e65"></circle><circle r="5" cx="90.11" cy="686.18" fill="#132e65"></circle><circle r="5" cx="220.05" cy="384.85" fill="#132e65"></circle><circle r="5" cx="222.08" cy="510.76" fill="#132e65"></circle><circle r="5" cx="224.19" cy="691.83" fill="#132e65"></circle><circle r="5" cx="383.82" cy="337.53" fill="#132e65"></circle><circle r="5" cx="397.94" cy="538.18" fill="#132e65"></circle><circle r="5" cx="553.38" cy="371.87" fill="#132e65"></circle><circle r="5" cx="539.8" cy="489.43" fill="#132e65"></circle><circle r="5" cx="506.86" cy="663.08" fill="#132e65"></circle><circle r="5" cx="684.99" cy="221.65" fill="#132e65"></circle><circle r="5" cx="655.66" cy="370.93" fill="#132e65"></circle><circle r="5" cx="699.95" cy="533.58" fill="#132e65"></circle><circle r="5" cx="690.03" cy="653.18" fill="#132e65"></circle><circle r="5" cx="804.22" cy="251.75" fill="#132e65"></circle><circle r="5" cx="850.41" cy="409.56" fill="#132e65"></circle><circle r="5" cx="795.13" cy="503.89" fill="#132e65"></circle><circle r="5" cx="811.91" cy="685.74" fill="#132e65"></circle><circle r="5" cx="966.66" cy="-94.87" fill="#132e65"></circle><circle r="5" cx="953.86" cy="59.08" fill="#132e65"></circle><circle r="5" cx="952.14" cy="199.68" fill="#132e65"></circle><circle r="5" cx="983.11" cy="369.91" fill="#132e65"></circle><circle r="5" cx="956.05" cy="545.06" fill="#132e65"></circle><circle r="5" cx="1012.41" cy="676.21" fill="#132e65"></circle><circle r="5" cx="1123.45" cy="-44.55" fill="#132e65"></circle><circle r="5" cx="1145.69" cy="71.56" fill="#132e65"></circle><circle r="5" cx="1087.84" cy="197.4" fill="#132e65"></circle><circle r="5" cx="1161.51" cy="361.73" fill="#132e65"></circle><circle r="5" cx="1110.5" cy="504.05" fill="#132e65"></circle><circle r="5" cx="1269.58" cy="-45.7" fill="#132e65"></circle><circle r="5" cx="1283.32" cy="71.89" fill="#132e65"></circle><circle r="5" cx="1281.67" cy="262.46" fill="#132e65"></circle><circle r="5" cx="1271.75" cy="358.4" fill="#132e65"></circle><circle r="5" cx="1293.28" cy="498.21" fill="#132e65"></circle><circle r="5" cx="1311.7" cy="705.12" fill="#132e65"></circle><circle r="5" cx="1417.31" cy="-44.44" fill="#132e65"></circle><circle r="5" cx="1421.75" cy="45.93" fill="#132e65"></circle><circle r="5" cx="1446.92" cy="208.71" fill="#132e65"></circle><circle r="5" cx="1434.95" cy="373.66" fill="#132e65"></circle><circle r="5" cx="1388.6" cy="559.52" fill="#132e65"></circle><circle r="5" cx="1433.83" cy="686.35" fill="#132e65"></circle><circle r="5" cx="1603.62" cy="92.51" fill="#132e65"></circle><circle r="5" cx="1556.08" cy="230.65" fill="#132e65"></circle><circle r="5" cx="1612.03" cy="361.5" fill="#132e65"></circle><circle r="5" cx="1612.19" cy="504.03" fill="#132e65"></circle><circle r="5" cx="1565.97" cy="661.2" fill="#132e65"></circle><path d="M-74.28 683.5L-74.28 683.5" stroke="hsl(228.5, 77.2%, 51.5%)" stroke-width="1.5"></path><path d="M-74.28 683.5L62.36 641.54" stroke="hsl(228.5, 77.2%, 51.5%)" stroke-width="1.5"></path><path d="M-74.28 683.5L-91.53 530.34" stroke="hsl(228.5, 77.2%, 51.5%)" stroke-width="1.5"></path><path d="M-74.28 683.5L43.26 559.04" stroke="hsl(228.5, 77.2%, 51.5%)" stroke-width="1.5"></path><path d="M-74.28 683.5L245.24 641.61" stroke="hsl(228.5, 77.2%, 51.5%)" stroke-width="1.5"></path><path d="M-74.28 683.5L237.79 550.4" stroke="hsl(228.5, 77.2%, 51.5%)" stroke-width="1.5"></path><path d="M338.08 529.67L338.08 529.67" stroke="hsl(228.5, 77.2%, 51.5%)" stroke-width="1.5"></path><path d="M338.08 529.67L237.79 550.4" stroke="hsl(228.5, 77.2%, 51.5%)" stroke-width="1.5"></path><path d="M338.08 529.67L356.95 646.39" stroke="hsl(228.5, 77.2%, 51.5%)" stroke-width="1.5"></path><path d="M338.08 529.67L245.24 641.61" stroke="hsl(228.5, 77.2%, 51.5%)" stroke-width="1.5"></path><path d="M338.08 529.67L555.98 667.9" stroke="hsl(228.5, 77.2%, 51.5%)" stroke-width="1.5"></path><path d="M338.08 529.67L43.26 559.04" stroke="hsl(228.5, 77.2%, 51.5%)" stroke-width="1.5"></path><path d="M356.95 646.39L356.95 646.39" stroke="hsl(228.5, 77.2%, 51.5%)" stroke-width="1.5"></path><path d="M356.95 646.39L245.24 641.61" stroke="hsl(228.5, 77.2%, 51.5%)" stroke-width="1.5"></path><path d="M356.95 646.39L237.79 550.4" stroke="hsl(228.5, 77.2%, 51.5%)" stroke-width="1.5"></path><path d="M356.95 646.39L555.98 667.9" stroke="hsl(228.5, 77.2%, 51.5%)" stroke-width="1.5"></path><path d="M963.23 490.48L963.23 490.48" stroke="hsl(228.5, 77.2%, 51.5%)" stroke-width="1.5"></path><path d="M963.23 490.48L849.18 498.6" stroke="hsl(228.5, 77.2%, 51.5%)" stroke-width="1.5"></path><path d="M963.23 490.48L1108.72 553.24" stroke="hsl(228.5, 77.2%, 51.5%)" stroke-width="1.5"></path><path d="M963.23 490.48L791.91 398.19" stroke="hsl(228.5, 77.2%, 51.5%)" stroke-width="1.5"></path><path d="M1099.41 341.84L1099.41 341.84" stroke="hsl(228.5, 77.2%, 51.5%)" stroke-width="1.5"></path><path d="M1099.41 341.84L1096.66 203.87" stroke="hsl(228.5, 77.2%, 51.5%)" stroke-width="1.5"></path><path d="M1099.41 341.84L1276.03 341.12" stroke="hsl(228.5, 77.2%, 51.5%)" stroke-width="1.5"></path><path d="M1099.41 341.84L1239.83 228.87" stroke="hsl(228.5, 77.2%, 51.5%)" stroke-width="1.5"></path><path d="M1099.41 341.84L963.23 490.48" stroke="hsl(228.5, 77.2%, 51.5%)" stroke-width="1.5"></path><path d="M1099.41 341.84L1108.72 553.24" stroke="hsl(228.5, 77.2%, 51.5%)" stroke-width="1.5"></path><path d="M1249.26 645.44L1249.26 645.44" stroke="hsl(228.5, 77.2%, 51.5%)" stroke-width="1.5"></path><path d="M1249.26 645.44L1292.07 540.88" stroke="hsl(228.5, 77.2%, 51.5%)" stroke-width="1.5"></path><path d="M1249.26 645.44L1103.59 652.28" stroke="hsl(228.5, 77.2%, 51.5%)" stroke-width="1.5"></path><path d="M1249.26 645.44L1108.72 553.24" stroke="hsl(228.5, 77.2%, 51.5%)" stroke-width="1.5"></path><path d="M1249.26 645.44L1423.34 708.68" stroke="hsl(228.5, 77.2%, 51.5%)" stroke-width="1.5"></path><path d="M1249.26 645.44L1398.43 522.76" stroke="hsl(228.5, 77.2%, 51.5%)" stroke-width="1.5"></path><path d="M1249.26 645.44L983.54 700.54" stroke="hsl(228.5, 77.2%, 51.5%)" stroke-width="1.5"></path><path d="M1553.59 214.22L1553.59 214.22" stroke="hsl(228.5, 77.2%, 51.5%)" stroke-width="1.5"></path><path d="M1553.59 214.22L1462.01 188.06" stroke="hsl(228.5, 77.2%, 51.5%)" stroke-width="1.5"></path><path d="M1553.59 214.22L1549.61 352.96" stroke="hsl(228.5, 77.2%, 51.5%)" stroke-width="1.5"></path><path d="M1553.59 214.22L1542.34 62.59" stroke="hsl(228.5, 77.2%, 51.5%)" stroke-width="1.5"></path><path d="M-91.53 530.34L-91.53 530.34" stroke="hsl(228.5, 77.2%, 51.5%)" stroke-width="1.5"></path><path d="M-91.53 530.34L43.26 559.04" stroke="hsl(228.5, 77.2%, 51.5%)" stroke-width="1.5"></path><path d="M-91.53 530.34L62.36 641.54" stroke="hsl(228.5, 77.2%, 51.5%)" stroke-width="1.5"></path><path d="M-91.53 530.34L237.79 550.4" stroke="hsl(228.5, 77.2%, 51.5%)" stroke-width="1.5"></path><path d="M-91.53 530.34L245.24 641.61" stroke="hsl(228.5, 77.2%, 51.5%)" stroke-width="1.5"></path><path d="M-91.53 530.34L338.08 529.67" stroke="hsl(228.5, 77.2%, 51.5%)" stroke-width="1.5"></path><path d="M43.26 559.04L43.26 559.04" stroke="hsl(228.5, 77.2%, 51.5%)" stroke-width="1.5"></path><path d="M43.26 559.04L62.36 641.54" stroke="hsl(228.5, 77.2%, 51.5%)" stroke-width="1.5"></path><path d="M62.36 641.54L62.36 641.54" stroke="hsl(228.5, 77.2%, 51.5%)" stroke-width="1.5"></path><path d="M237.79 550.4L237.79 550.4" stroke="hsl(228.5, 77.2%, 51.5%)" stroke-width="1.5"></path><path d="M237.79 550.4L245.24 641.61" stroke="hsl(228.5, 77.2%, 51.5%)" stroke-width="1.5"></path><path d="M245.24 641.61L245.24 641.61" stroke="hsl(228.5, 77.2%, 51.5%)" stroke-width="1.5"></path><path d="M555.98 667.9L555.98 667.9" stroke="hsl(228.5, 77.2%, 51.5%)" stroke-width="1.5"></path><path d="M555.98 667.9L685.35 548.03" stroke="hsl(228.5, 77.2%, 51.5%)" stroke-width="1.5"></path><path d="M685.35 548.03L685.35 548.03" stroke="hsl(228.5, 77.2%, 51.5%)" stroke-width="1.5"></path><path d="M685.35 548.03L849.18 498.6" stroke="hsl(228.5, 77.2%, 51.5%)" stroke-width="1.5"></path><path d="M685.35 548.03L791.91 398.19" stroke="hsl(228.5, 77.2%, 51.5%)" stroke-width="1.5"></path><path d="M791.91 398.19L791.91 398.19" stroke="hsl(228.5, 77.2%, 51.5%)" stroke-width="1.5"></path><path d="M791.91 398.19L849.18 498.6" stroke="hsl(228.5, 77.2%, 51.5%)" stroke-width="1.5"></path><path d="M849.18 498.6L849.18 498.6" stroke="hsl(228.5, 77.2%, 51.5%)" stroke-width="1.5"></path><path d="M851.04 667.98L851.04 667.98" stroke="hsl(228.5, 77.2%, 51.5%)" stroke-width="1.5"></path><path d="M851.04 667.98L983.54 700.54" stroke="hsl(228.5, 77.2%, 51.5%)" stroke-width="1.5"></path><path d="M851.04 667.98L849.18 498.6" stroke="hsl(228.5, 77.2%, 51.5%)" stroke-width="1.5"></path><path d="M983.54 700.54L983.54 700.54" stroke="hsl(228.5, 77.2%, 51.5%)" stroke-width="1.5"></path><path d="M983.54 700.54L1103.59 652.28" stroke="hsl(228.5, 77.2%, 51.5%)" stroke-width="1.5"></path><path d="M983.54 700.54L1108.72 553.24" stroke="hsl(228.5, 77.2%, 51.5%)" stroke-width="1.5"></path><path d="M983.54 700.54L963.23 490.48" stroke="hsl(228.5, 77.2%, 51.5%)" stroke-width="1.5"></path><path d="M983.54 700.54L849.18 498.6" stroke="hsl(228.5, 77.2%, 51.5%)" stroke-width="1.5"></path><path d="M1096.66 203.87L1096.66 203.87" stroke="hsl(228.5, 77.2%, 51.5%)" stroke-width="1.5"></path><path d="M1096.66 203.87L1239.83 228.87" stroke="hsl(228.5, 77.2%, 51.5%)" stroke-width="1.5"></path><path d="M1108.72 553.24L1108.72 553.24" stroke="hsl(228.5, 77.2%, 51.5%)" stroke-width="1.5"></path><path d="M1108.72 553.24L1103.59 652.28" stroke="hsl(228.5, 77.2%, 51.5%)" stroke-width="1.5"></path><path d="M1103.59 652.28L1103.59 652.28" stroke="hsl(228.5, 77.2%, 51.5%)" stroke-width="1.5"></path><path d="M1289 -38.56L1289 -38.56" stroke="hsl(228.5, 77.2%, 51.5%)" stroke-width="1.5"></path><path d="M1289 -38.56L1246.12 110.14" stroke="hsl(228.5, 77.2%, 51.5%)" stroke-width="1.5"></path><path d="M1289 -38.56L1239.83 228.87" stroke="hsl(228.5, 77.2%, 51.5%)" stroke-width="1.5"></path><path d="M1246.12 110.14L1246.12 110.14" stroke="hsl(228.5, 77.2%, 51.5%)" stroke-width="1.5"></path><path d="M1246.12 110.14L1239.83 228.87" stroke="hsl(228.5, 77.2%, 51.5%)" stroke-width="1.5"></path><path d="M1246.12 110.14L1096.66 203.87" stroke="hsl(228.5, 77.2%, 51.5%)" stroke-width="1.5"></path><path d="M1246.12 110.14L1462.01 188.06" stroke="hsl(228.5, 77.2%, 51.5%)" stroke-width="1.5"></path><path d="M1239.83 228.87L1239.83 228.87" stroke="hsl(228.5, 77.2%, 51.5%)" stroke-width="1.5"></path><path d="M1239.83 228.87L1276.03 341.12" stroke="hsl(228.5, 77.2%, 51.5%)" stroke-width="1.5"></path><path d="M1276.03 341.12L1276.03 341.12" stroke="hsl(228.5, 77.2%, 51.5%)" stroke-width="1.5"></path><path d="M1276.03 341.12L1422.54 408.06" stroke="hsl(228.5, 77.2%, 51.5%)" stroke-width="1.5"></path><path d="M1292.07 540.88L1292.07 540.88" stroke="hsl(228.5, 77.2%, 51.5%)" stroke-width="1.5"></path><path d="M1292.07 540.88L1398.43 522.76" stroke="hsl(228.5, 77.2%, 51.5%)" stroke-width="1.5"></path><path d="M1462.01 188.06L1462.01 188.06" stroke="hsl(228.5, 77.2%, 51.5%)" stroke-width="1.5"></path><path d="M1462.01 188.06L1542.34 62.59" stroke="hsl(228.5, 77.2%, 51.5%)" stroke-width="1.5"></path><path d="M1462.01 188.06L1549.61 352.96" stroke="hsl(228.5, 77.2%, 51.5%)" stroke-width="1.5"></path><path d="M1462.01 188.06L1422.54 408.06" stroke="hsl(228.5, 77.2%, 51.5%)" stroke-width="1.5"></path><path d="M1462.01 188.06L1239.83 228.87" stroke="hsl(228.5, 77.2%, 51.5%)" stroke-width="1.5"></path><path d="M1422.54 408.06L1422.54 408.06" stroke="hsl(228.5, 77.2%, 51.5%)" stroke-width="1.5"></path><path d="M1422.54 408.06L1398.43 522.76" stroke="hsl(228.5, 77.2%, 51.5%)" stroke-width="1.5"></path><path d="M1422.54 408.06L1549.61 352.96" stroke="hsl(228.5, 77.2%, 51.5%)" stroke-width="1.5"></path><path d="M1422.54 408.06L1292.07 540.88" stroke="hsl(228.5, 77.2%, 51.5%)" stroke-width="1.5"></path><path d="M1422.54 408.06L1595.17 523.53" stroke="hsl(228.5, 77.2%, 51.5%)" stroke-width="1.5"></path><path d="M1398.43 522.76L1398.43 522.76" stroke="hsl(228.5, 77.2%, 51.5%)" stroke-width="1.5"></path><path d="M1398.43 522.76L1423.34 708.68" stroke="hsl(228.5, 77.2%, 51.5%)" stroke-width="1.5"></path><path d="M1398.43 522.76L1595.17 523.53" stroke="hsl(228.5, 77.2%, 51.5%)" stroke-width="1.5"></path><path d="M1423.34 708.68L1423.34 708.68" stroke="hsl(228.5, 77.2%, 51.5%)" stroke-width="1.5"></path><path d="M1423.34 708.68L1606.87 687.59" stroke="hsl(228.5, 77.2%, 51.5%)" stroke-width="1.5"></path><path d="M1423.34 708.68L1292.07 540.88" stroke="hsl(228.5, 77.2%, 51.5%)" stroke-width="1.5"></path><path d="M1423.34 708.68L1595.17 523.53" stroke="hsl(228.5, 77.2%, 51.5%)" stroke-width="1.5"></path><path d="M1423.34 708.68L1422.54 408.06" stroke="hsl(228.5, 77.2%, 51.5%)" stroke-width="1.5"></path><path d="M1571.43 -66.25L1571.43 -66.25" stroke="hsl(228.5, 77.2%, 51.5%)" stroke-width="1.5"></path><path d="M1571.43 -66.25L1542.34 62.59" stroke="hsl(228.5, 77.2%, 51.5%)" stroke-width="1.5"></path><path d="M1571.43 -66.25L1462.01 188.06" stroke="hsl(228.5, 77.2%, 51.5%)" stroke-width="1.5"></path><path d="M1542.34 62.59L1542.34 62.59" stroke="hsl(228.5, 77.2%, 51.5%)" stroke-width="1.5"></path><path d="M1542.34 62.59L1289 -38.56" stroke="hsl(228.5, 77.2%, 51.5%)" stroke-width="1.5"></path><path d="M1542.34 62.59L1549.61 352.96" stroke="hsl(228.5, 77.2%, 51.5%)" stroke-width="1.5"></path><path d="M1542.34 62.59L1246.12 110.14" stroke="hsl(228.5, 77.2%, 51.5%)" stroke-width="1.5"></path><path d="M1549.61 352.96L1549.61 352.96" stroke="hsl(228.5, 77.2%, 51.5%)" stroke-width="1.5"></path><path d="M1549.61 352.96L1595.17 523.53" stroke="hsl(228.5, 77.2%, 51.5%)" stroke-width="1.5"></path><path d="M1549.61 352.96L1398.43 522.76" stroke="hsl(228.5, 77.2%, 51.5%)" stroke-width="1.5"></path><path d="M1595.17 523.53L1595.17 523.53" stroke="hsl(228.5, 77.2%, 51.5%)" stroke-width="1.5"></path><path d="M1595.17 523.53L1606.87 687.59" stroke="hsl(228.5, 77.2%, 51.5%)" stroke-width="1.5"></path><path d="M1606.87 687.59L1606.87 687.59" stroke="hsl(228.5, 77.2%, 51.5%)" stroke-width="1.5"></path><path d="M1606.87 687.59L1398.43 522.76" stroke="hsl(228.5, 77.2%, 51.5%)" stroke-width="1.5"></path><path d="M1606.87 687.59L1422.54 408.06" stroke="hsl(228.5, 77.2%, 51.5%)" stroke-width="1.5"></path><path d="M1606.87 687.59L1549.61 352.96" stroke="hsl(228.5, 77.2%, 51.5%)" stroke-width="1.5"></path><circle r="25" cx="-74.28" cy="683.5" fill="url(&quot;#SvgjsRadialGradient1001&quot;)"></circle><circle r="25" cx="338.08" cy="529.67" fill="url(&quot;#SvgjsRadialGradient1001&quot;)"></circle><circle r="25" cx="356.95" cy="646.39" fill="url(&quot;#SvgjsRadialGradient1001&quot;)"></circle><circle r="25" cx="963.23" cy="490.48" fill="url(&quot;#SvgjsRadialGradient1001&quot;)"></circle><circle r="25" cx="1099.41" cy="341.84" fill="url(&quot;#SvgjsRadialGradient1001&quot;)"></circle><circle r="25" cx="1249.26" cy="645.44" fill="url(&quot;#SvgjsRadialGradient1001&quot;)"></circle><circle r="25" cx="1553.59" cy="214.22" fill="url(&quot;#SvgjsRadialGradient1001&quot;)"></circle><circle r="5" cx="-91.53" cy="530.34" fill="#8b9ad9"></circle><circle r="5" cx="43.26" cy="559.04" fill="#8b9ad9"></circle><circle r="5" cx="62.36" cy="641.54" fill="#8b9ad9"></circle><circle r="5" cx="237.79" cy="550.4" fill="#8b9ad9"></circle><circle r="5" cx="245.24" cy="641.61" fill="#8b9ad9"></circle><circle r="5" cx="555.98" cy="667.9" fill="#8b9ad9"></circle><circle r="5" cx="685.35" cy="548.03" fill="#8b9ad9"></circle><circle r="5" cx="791.91" cy="398.19" fill="#8b9ad9"></circle><circle r="5" cx="849.18" cy="498.6" fill="#8b9ad9"></circle><circle r="5" cx="851.04" cy="667.98" fill="#8b9ad9"></circle><circle r="5" cx="983.54" cy="700.54" fill="#8b9ad9"></circle><circle r="5" cx="1096.66" cy="203.87" fill="#8b9ad9"></circle><circle r="5" cx="1108.72" cy="553.24" fill="#8b9ad9"></circle><circle r="5" cx="1103.59" cy="652.28" fill="#8b9ad9"></circle><circle r="5" cx="1289" cy="-38.56" fill="#8b9ad9"></circle><circle r="5" cx="1246.12" cy="110.14" fill="#8b9ad9"></circle><circle r="5" cx="1239.83" cy="228.87" fill="#8b9ad9"></circle><circle r="5" cx="1276.03" cy="341.12" fill="#8b9ad9"></circle><circle r="5" cx="1292.07" cy="540.88" fill="#8b9ad9"></circle><circle r="5" cx="1462.01" cy="188.06" fill="#8b9ad9"></circle><circle r="5" cx="1422.54" cy="408.06" fill="#8b9ad9"></circle><circle r="5" cx="1398.43" cy="522.76" fill="#8b9ad9"></circle><circle r="5" cx="1423.34" cy="708.68" fill="#8b9ad9"></circle><circle r="5" cx="1571.43" cy="-66.25" fill="#8b9ad9"></circle><circle r="5" cx="1542.34" cy="62.59" fill="#8b9ad9"></circle><circle r="5" cx="1549.61" cy="352.96" fill="#8b9ad9"></circle><circle r="5" cx="1595.17" cy="523.53" fill="#8b9ad9"></circle><circle r="5" cx="1606.87" cy="687.59" fill="#8b9ad9"></circle></g><defs><mask id="SvgjsMask1000"><rect width="1440" height="560" fill="#ffffff"></rect></mask><radialGradient id="SvgjsRadialGradient1001"><stop stop-color="#ffffff" offset="0.1"></stop><stop stop-color="#1735b3" offset="0.2"></stop><stop stop-color="rgba(23, 53, 179, 0)" offset="1"></stop></radialGradient></defs></svg>